<svg preserveAspectRatio="none" width="100%" height="100%" overflow="visible" style="display: block;" viewBox="0 0 21.9922 6.33594" fill="none" xmlns="http://www.w3.org/2000/svg">
<path id="Vector" d="M3.75885 3.16445L6.16272 0.749124C6.22227 0.688541 6.26261 0.611729 6.27869 0.528315C6.29476 0.444901 6.28587 0.358596 6.25311 0.280217C6.22035 0.201838 6.16519 0.134871 6.09455 0.0877111C6.02389 0.0405508 5.9409 0.0152951 5.85595 0.0151084C5.73995 0.0151084 5.63145 0.0603219 5.54985 0.143693L3.1473 2.54821L0.735275 0.139172C0.65427 0.0591113 0.544818 0.0144535 0.430932 0.0149973C0.345419 0.0150748 0.261864 0.0405946 0.190897 0.0883075C0.119931 0.136021 0.0647637 0.20377 0.032415 0.282933C6.62829e-05 0.362098 -0.00800069 0.449098 0.00924071 0.532862C0.0264821 0.616625 0.0682523 0.693364 0.129235 0.753314L2.5331 3.1606L0.130559 5.56963C0.0464233 5.65367 1.41682e-08 5.76284 1.41682e-08 5.87896C-2.92761e-05 5.99335 0.045357 6.10307 0.126183 6.18401C0.20701 6.26495 0.316662 6.31047 0.431042 6.31059C0.487535 6.31085 0.543517 6.2999 0.595741 6.27836C0.647967 6.25682 0.695394 6.22512 0.735275 6.1851L3.1441 3.77473L5.54356 6.17561C5.62891 6.26351 5.73807 6.31059 5.85595 6.31059C5.97025 6.31039 6.07978 6.26482 6.16048 6.18388C6.24118 6.10294 6.28645 5.99327 6.28634 5.87896C6.28634 5.76416 6.24244 5.6562 6.16085 5.57459L3.7583 3.16181L3.75885 3.16445ZM18.0496 3.16378C18.0497 3.37174 18.1324 3.57116 18.2794 3.7182C18.4265 3.86525 18.6258 3.9479 18.8337 3.94799C19.2642 3.94799 19.6153 3.59663 19.6153 3.1639C19.6153 2.73094 19.2642 2.37959 18.8331 2.37959C18.4022 2.37959 18.0515 2.73094 18.0515 3.16378H18.0496ZM16.566 3.16378C16.566 1.91213 17.5824 0.892707 18.8332 0.892707C20.0815 0.892707 21.0996 1.91224 21.0996 3.16378C21.0996 4.41534 20.0821 5.43487 18.8331 5.43487C17.5829 5.43487 16.566 4.41667 16.566 3.16378ZM15.6738 3.16378C15.6738 4.90785 17.0916 6.32824 18.8331 6.32824C20.5746 6.32824 21.9922 4.90917 21.9922 3.16434C21.9922 1.42039 20.5745 0 18.833 0C17.0909 0 15.6738 1.41906 15.6738 3.16378ZM15.45 0.0539262H15.3182C14.9199 0.0539262 14.5359 0.179424 14.2154 0.42722C14.1715 0.235335 13.9983 0.088443 13.7926 0.088443C13.7363 0.0884713 13.6807 0.0996079 13.6288 0.121214C13.5769 0.142819 13.5298 0.174467 13.4901 0.21434C13.4505 0.254213 13.4191 0.301524 13.3978 0.353557C13.3765 0.405589 13.3658 0.461318 13.3661 0.517539L13.3673 5.84699C13.3673 6.08353 13.5618 6.27619 13.797 6.27619C13.9112 6.27601 14.0205 6.23063 14.1013 6.14997C14.1821 6.0693 14.2276 5.95992 14.2279 5.84577V2.56839C14.2279 1.47686 14.3283 1.03518 15.2617 0.918512C15.3495 0.907815 15.4424 0.90969 15.4436 0.90969C15.6983 0.900316 15.8803 0.723981 15.8803 0.486219C15.8801 0.371595 15.8343 0.26176 15.7531 0.180832C15.6719 0.0999043 15.562 0.0544995 15.4474 0.0545875L15.45 0.0539262ZM7.17819 2.64371C7.17819 2.63115 7.17951 2.61857 7.18006 2.60732C7.42982 1.61614 8.32554 0.883995 9.3914 0.883995C10.4704 0.883995 11.3738 1.633 11.612 2.64184H7.17775L7.17819 2.64371ZM12.4934 2.56211C12.3077 1.68197 11.8266 0.958654 11.0945 0.49438C10.0231 -0.186923 8.60904 -0.149318 7.57527 0.588448C6.73094 1.1888 6.24355 2.1726 6.24355 3.18574C6.24355 3.43982 6.27486 3.69632 6.33761 3.94931C6.65629 5.20395 7.73405 6.15511 9.01881 6.31258C9.40011 6.3589 9.7715 6.33762 10.1543 6.23726C10.4854 6.15566 10.8048 6.02266 11.099 5.8332C11.4043 5.6369 11.6598 5.37708 11.9082 5.06654C11.912 5.06037 11.917 5.05596 11.922 5.04967C12.0939 4.83639 12.0618 4.53136 11.8737 4.38711C11.7143 4.26481 11.447 4.21529 11.2375 4.48504C11.1923 4.55032 11.1416 4.61683 11.087 4.68266C10.9195 4.86771 10.7119 5.04658 10.4635 5.18575C10.1372 5.36008 9.77324 5.45206 9.40331 5.45373C8.14999 5.43929 7.47999 4.56279 7.24094 3.93795C7.19913 3.81944 7.16705 3.69773 7.145 3.57403L7.13871 3.50819H11.6366C12.2525 3.49441 12.5838 3.05836 12.4922 2.5609L12.4934 2.56211Z" fill="var(--fill-0, #00375F)"/>
</svg>
